<?xml version="1.0" encoding="UTF-8" standalone="no"?>
<svg
   xmlns:dc="http://purl.org/dc/elements/1.1/"
   xmlns:cc="http://creativecommons.org/ns#"
   xmlns:rdf="http://www.w3.org/1999/02/22-rdf-syntax-ns#"
   xmlns:svg="http://www.w3.org/2000/svg"
   xmlns="http://www.w3.org/2000/svg"
   xmlns:sodipodi="http://sodipodi.sourceforge.net/DTD/sodipodi-0.dtd"
   xmlns:inkscape="http://www.inkscape.org/namespaces/inkscape"
   height="36"
   viewBox="0 0 20 18"
   width="40"
   id="svg2"
   version="1.1"
   inkscape:version="0.91 r13725"
   sodipodi:docname="ic_photo_camera_black_rm_ws.svg"
   style="fill:#000000">
  <metadata
     id="metadata14">
    <rdf:RDF>
      <cc:Work
         rdf:about="">
        <dc:format>image/svg+xml</dc:format>
        <dc:type
           rdf:resource="http://purl.org/dc/dcmitype/StillImage" />
        <dc:title></dc:title>
      </cc:Work>
    </rdf:RDF>
  </metadata>
  <defs
     id="defs12" />
  <sodipodi:namedview
     pagecolor="#ffffff"
     bordercolor="#666666"
     borderopacity="1"
     objecttolerance="10"
     gridtolerance="10"
     guidetolerance="10"
     inkscape:pageopacity="0"
     inkscape:pageshadow="2"
     inkscape:window-width="1366"
     inkscape:window-height="745"
     id="namedview10"
     showgrid="false"
     inkscape:zoom="4.9166667"
     inkscape:cx="25.854956"
     inkscape:cy="16.99471"
     inkscape:window-x="-8"
     inkscape:window-y="-8"
     inkscape:window-maximized="1"
     inkscape:current-layer="svg2" />
  <circle
     cx="10.016949"
     cy="10.016949"
     r="3.2"
     id="circle4" />
  <path
     d="m 7.0169492,0.0169492 -1.83,2 -3.17,0 c -1.10000005,0 -2.00000005,0.9 -2.00000005,2 l 0,11.9999998 c 0,1.1 0.9,2 2.00000005,2 l 15.9999998,0 c 1.1,0 2,-0.9 2,-2 l 0,-11.9999998 c 0,-1.1 -0.9,-2 -2,-2 l -3.17,0 -1.83,-2 -5.9999998,0 z M 10.016949,15.016949 c -2.7599998,0 -4.9999998,-2.24 -4.9999998,-5 0,-2.76 2.24,-4.9999998 4.9999998,-4.9999998 2.76,0 5,2.2399998 5,4.9999998 0,2.76 -2.24,5 -5,5 z"
     id="path6"
     inkscape:connector-curvature="0" />
  <path
     d="m 0,-6 24,0 0,24 -24,0 z"
     id="path8"
     inkscape:connector-curvature="0"
     style="fill:none" />
</svg>
