<?xml version="1.0" standalone="no"?>
<!DOCTYPE svg PUBLIC "-//W3C//DTD SVG 20010904//EN"
 "http://www.w3.org/TR/2001/REC-SVG-20010904/DTD/svg10.dtd">
<svg version="1.0" xmlns="http://www.w3.org/2000/svg"
 width="512.000000pt" height="512.000000pt" viewBox="0 0 512.000000 512.000000"
 preserveAspectRatio="xMidYMid meet">
<metadata>
Created by potrace 1.13, written by Peter Selinger 2001-2015
</metadata>
<g transform="translate(0.000000,512.000000) scale(0.100000,-0.100000)"
fill="#000000" stroke="none">
<path d="M2493 4523 c-13 -2 -42 -23 -67 -46 -31 -30 -386 -584 -1223 -1912
-649 -1029 -1184 -1883 -1191 -1898 -16 -38 -15 -117 3 -159 18 -45 74 -94
122 -107 53 -15 4793 -15 4846 0 47 13 106 63 123 106 17 40 18 123 2 160 -19
44 -2368 3765 -2397 3796 -52 57 -126 78 -218 60z m1066 -2153 c545 -863 991
-1572 991 -1575 0 -3 -895 -5 -1990 -5 -1094 0 -1990 2 -1990 5 0 12 1983
3145 1990 3145 4 0 453 -706 999 -1570z"/>
<path d="M2720 3150 c-102 -19 -160 -90 -160 -195 0 -177 195 -268 327 -152
91 80 96 206 11 294 -43 45 -114 66 -178 53z"/>
<path d="M2215 2740 c-55 -3 -107 -10 -116 -14 -9 -4 -83 -79 -164 -167 -94
-102 -154 -159 -166 -159 -53 0 -90 -88 -51 -122 9 -9 339 -177 732 -373 393
-196 717 -359 720 -362 3 -2 -11 -17 -30 -33 -24 -20 -51 -31 -87 -36 -34 -4
-58 -14 -72 -28 -11 -11 -67 -120 -125 -241 l-106 -220 592 -3 c325 -1 593 -1
595 1 9 10 -384 832 -415 868 -28 33 -40 39 -72 39 -45 0 -71 -25 -144 -143
-27 -43 -51 -77 -55 -77 -3 1 -73 36 -156 78 l-149 77 -72 342 c-52 248 -78
351 -93 372 -32 45 -106 106 -190 159 l-76 47 -100 1 c-55 1 -145 -2 -200 -6z
m19 -232 c-4 -7 -43 -66 -87 -130 l-80 -116 -53 26 c-30 14 -54 29 -54 32 0
16 188 189 210 193 52 9 71 7 64 -5z m496 -571 c0 -6 -235 106 -249 119 -2 1
34 51 80 110 l83 107 42 -164 c24 -90 43 -167 44 -172z"/>
<path d="M1822 1593 c-138 -470 -150 -526 -114 -569 41 -52 109 -59 150 -16
20 19 65 128 161 384 l134 358 36 -32 c20 -17 72 -65 117 -107 l80 -76 28
-235 c16 -129 34 -249 41 -267 16 -39 42 -53 94 -53 31 0 44 6 60 26 18 23 21
40 21 133 -1 58 -5 176 -9 263 l-8 156 -63 112 -62 111 -259 130 c-142 71
-263 129 -267 129 -5 0 -68 -201 -140 -447z"/>
</g>
</svg>
